<mxfile host="app.diagrams.net" agent="Mozilla/5.0 (Windows NT 10.0; Win64; x64) AppleWebKit/537.36 (KHTML, like Gecko) Chrome/136.0.0.0 Safari/537.36" version="27.0.5">
  <diagram name="Página-1" id="Tp3v6QQYUwOENjYpUBch">
    <mxGraphModel dx="1042" dy="567" grid="1" gridSize="10" guides="1" tooltips="1" connect="1" arrows="1" fold="1" page="1" pageScale="1" pageWidth="827" pageHeight="1169" math="0" shadow="0">
      <root>
        <mxCell id="0" />
        <mxCell id="1" parent="0" />
        <mxCell id="AWlWOE0TuNi0cQey60MC-2" value="" style="shape=flexArrow;endArrow=classic;html=1;rounded=0;" edge="1" parent="1">
          <mxGeometry width="50" height="50" relative="1" as="geometry">
            <mxPoint x="180" y="214.58" as="sourcePoint" />
            <mxPoint x="300" y="215" as="targetPoint" />
            <Array as="points">
              <mxPoint x="230" y="215" />
            </Array>
          </mxGeometry>
        </mxCell>
        <mxCell id="AWlWOE0TuNi0cQey60MC-5" value="Proceso" style="rounded=0;whiteSpace=wrap;html=1;" vertex="1" parent="1">
          <mxGeometry x="340" y="190" width="160" height="50" as="geometry" />
        </mxCell>
        <mxCell id="AWlWOE0TuNi0cQey60MC-6" value="&lt;font style=&quot;font-size: 14px;&quot;&gt;X&lt;/font&gt;" style="text;html=1;align=center;verticalAlign=middle;resizable=0;points=[];autosize=1;strokeColor=none;fillColor=none;" vertex="1" parent="1">
          <mxGeometry x="210" y="170" width="30" height="30" as="geometry" />
        </mxCell>
        <mxCell id="AWlWOE0TuNi0cQey60MC-7" value="Y" style="text;html=1;align=center;verticalAlign=middle;resizable=0;points=[];autosize=1;strokeColor=none;fillColor=none;" vertex="1" parent="1">
          <mxGeometry x="580" y="170" width="30" height="30" as="geometry" />
        </mxCell>
        <mxCell id="AWlWOE0TuNi0cQey60MC-8" value="Algoritmo f(x)" style="text;html=1;align=center;verticalAlign=middle;resizable=0;points=[];autosize=1;strokeColor=none;fillColor=none;" vertex="1" parent="1">
          <mxGeometry x="375" y="240" width="90" height="30" as="geometry" />
        </mxCell>
        <mxCell id="AWlWOE0TuNi0cQey60MC-9" value="&lt;font style=&quot;font-size: 8px;&quot;&gt;- Problema de regresión.&lt;/font&gt;&lt;div&gt;&lt;font style=&quot;font-size: 8px;&quot;&gt;X = Variable númerica continua.&lt;/font&gt;&lt;/div&gt;" style="text;html=1;align=center;verticalAlign=middle;resizable=0;points=[];autosize=1;strokeColor=none;fillColor=none;" vertex="1" parent="1">
          <mxGeometry x="170" y="235" width="140" height="40" as="geometry" />
        </mxCell>
        <mxCell id="AWlWOE0TuNi0cQey60MC-10" value="&lt;div style=&quot;&quot;&gt;&lt;span style=&quot;background-color: transparent; color: light-dark(rgb(0, 0, 0), rgb(255, 255, 255));&quot;&gt;&lt;font style=&quot;font-size: 8px;&quot;&gt;- Problema de clasificación.&lt;/font&gt;&lt;/span&gt;&lt;/div&gt;&lt;div style=&quot;&quot;&gt;&lt;font style=&quot;font-size: 8px;&quot;&gt;Y = Variable con dos o más categorias o clases&lt;/font&gt;&lt;/div&gt;" style="text;html=1;align=center;verticalAlign=middle;resizable=0;points=[];autosize=1;strokeColor=none;fillColor=none;" vertex="1" parent="1">
          <mxGeometry x="500" y="240" width="190" height="40" as="geometry" />
        </mxCell>
        <mxCell id="AWlWOE0TuNi0cQey60MC-11" value="" style="shape=flexArrow;endArrow=classic;html=1;rounded=0;" edge="1" parent="1">
          <mxGeometry width="50" height="50" relative="1" as="geometry">
            <mxPoint x="535" y="214.58000000000007" as="sourcePoint" />
            <mxPoint x="655" y="215.00000000000003" as="targetPoint" />
            <Array as="points">
              <mxPoint x="535" y="214.58000000000007" />
              <mxPoint x="585" y="215.00000000000003" />
            </Array>
          </mxGeometry>
        </mxCell>
      </root>
    </mxGraphModel>
  </diagram>
</mxfile>
